<svg id="visual" viewBox="0 0 960 540" width="960" height="540" xmlns="http://www.w3.org/2000/svg" xmlns:xlink="http://www.w3.org/1999/xlink" version="1.1"><g stroke-width="1" stroke-linejoin="bevel"><path d="M408.7 273L462.7 193L348 234Z" fill="#889bcf" stroke="#889bcf"></path><path d="M462.7 193L327 193L348 234Z" fill="#122464" stroke="#122464"></path><path d="M462.7 193L401.7 83L327 193Z" fill="#acc1ef" stroke="#acc1ef"></path><path d="M408.7 273L541.3 230L462.7 193Z" fill="#5665a1" stroke="#5665a1"></path><path d="M462.7 193L523.3 62L401.7 83Z" fill="#354482" stroke="#354482"></path><path d="M348 234L387.7 360L408.7 273Z" fill="#6677b0" stroke="#6677b0"></path><path d="M408.7 273L562.3 331L541.3 230Z" fill="#455491" stroke="#455491"></path><path d="M327 383L387.7 360L348 234Z" fill="#5665a1" stroke="#5665a1"></path><path d="M249.3 54L251.3 200L327 193Z" fill="#122464" stroke="#122464"></path><path d="M327 193L251.3 200L348 234Z" fill="#acc1ef" stroke="#acc1ef"></path><path d="M541.3 230L551.3 150L462.7 193Z" fill="#7789c0" stroke="#7789c0"></path><path d="M391.7 0L354 50L401.7 83Z" fill="#bfd4ff" stroke="#bfd4ff"></path><path d="M401.7 83L354 50L327 193Z" fill="#7789c0" stroke="#7789c0"></path><path d="M225.3 294L327 383L348 234Z" fill="#6677b0" stroke="#6677b0"></path><path d="M551.3 150L523.3 62L462.7 193Z" fill="#122464" stroke="#122464"></path><path d="M438.7 426L562.3 331L387.7 360Z" fill="#122464" stroke="#122464"></path><path d="M387.7 360L562.3 331L408.7 273Z" fill="#122464" stroke="#122464"></path><path d="M541.3 230L605 265L551.3 150Z" fill="#7789c0" stroke="#7789c0"></path><path d="M251.3 200L225.3 294L348 234Z" fill="#253473" stroke="#253473"></path><path d="M562.3 331L605 265L541.3 230Z" fill="#6677b0" stroke="#6677b0"></path><path d="M551.3 150L652 75L523.3 62Z" fill="#9aaedf" stroke="#9aaedf"></path><path d="M523.3 62L391.7 0L401.7 83Z" fill="#889bcf" stroke="#889bcf"></path><path d="M327 383L438.7 426L387.7 360Z" fill="#acc1ef" stroke="#acc1ef"></path><path d="M284 0L249.3 54L354 50Z" fill="#bfd4ff" stroke="#bfd4ff"></path><path d="M354 50L249.3 54L327 193Z" fill="#acc1ef" stroke="#acc1ef"></path><path d="M251.3 200L113.7 211L225.3 294Z" fill="#122464" stroke="#122464"></path><path d="M391.7 0L284 0L354 50Z" fill="#7789c0" stroke="#7789c0"></path><path d="M113.7 267L207.3 361L225.3 294Z" fill="#455491" stroke="#455491"></path><path d="M225.3 294L207.3 361L327 383Z" fill="#bfd4ff" stroke="#bfd4ff"></path><path d="M327 383L324 470L438.7 426Z" fill="#122464" stroke="#122464"></path><path d="M605 265L665 147L551.3 150Z" fill="#7789c0" stroke="#7789c0"></path><path d="M652 75L570.3 0L523.3 62Z" fill="#5665a1" stroke="#5665a1"></path><path d="M523.3 62L570.3 0L391.7 0Z" fill="#455491" stroke="#455491"></path><path d="M199.3 441L324 470L327 383Z" fill="#354482" stroke="#354482"></path><path d="M284 0L235.3 0L249.3 54Z" fill="#7789c0" stroke="#7789c0"></path><path d="M249.3 54L145.7 118L251.3 200Z" fill="#7789c0" stroke="#7789c0"></path><path d="M118.7 0L145.7 118L249.3 54Z" fill="#7789c0" stroke="#7789c0"></path><path d="M432.7 540L516.3 469L438.7 426Z" fill="#253473" stroke="#253473"></path><path d="M438.7 426L516.3 469L562.3 331Z" fill="#9aaedf" stroke="#9aaedf"></path><path d="M724.7 348L725.7 243L605 265Z" fill="#acc1ef" stroke="#acc1ef"></path><path d="M605 265L707.7 167L665 147Z" fill="#354482" stroke="#354482"></path><path d="M665 147L652 75L551.3 150Z" fill="#354482" stroke="#354482"></path><path d="M145.7 118L113.7 211L251.3 200Z" fill="#9aaedf" stroke="#9aaedf"></path><path d="M113.7 211L113.7 267L225.3 294Z" fill="#455491" stroke="#455491"></path><path d="M725.7 243L707.7 167L605 265Z" fill="#889bcf" stroke="#889bcf"></path><path d="M665 147L707.7 167L652 75Z" fill="#253473" stroke="#253473"></path><path d="M207.3 361L199.3 441L327 383Z" fill="#889bcf" stroke="#889bcf"></path><path d="M97.7 373L199.3 441L207.3 361Z" fill="#6677b0" stroke="#6677b0"></path><path d="M676 392L605 265L562.3 331Z" fill="#acc1ef" stroke="#acc1ef"></path><path d="M516.3 469L629 446L562.3 331Z" fill="#455491" stroke="#455491"></path><path d="M730.7 0L650 0L652 75Z" fill="#bfd4ff" stroke="#bfd4ff"></path><path d="M652 75L650 0L570.3 0Z" fill="#acc1ef" stroke="#acc1ef"></path><path d="M629 446L676 392L562.3 331Z" fill="#6677b0" stroke="#6677b0"></path><path d="M324 470L432.7 540L438.7 426Z" fill="#6677b0" stroke="#6677b0"></path><path d="M516.3 469L631 540L629 446Z" fill="#7789c0" stroke="#7789c0"></path><path d="M320 540L432.7 540L324 470Z" fill="#253473" stroke="#253473"></path><path d="M235.3 540L320 540L324 470Z" fill="#9aaedf" stroke="#9aaedf"></path><path d="M432.7 540L516.3 540L516.3 469Z" fill="#7789c0" stroke="#7789c0"></path><path d="M0 273L97.7 373L113.7 267Z" fill="#455491" stroke="#455491"></path><path d="M113.7 267L97.7 373L207.3 361Z" fill="#455491" stroke="#455491"></path><path d="M199.3 441L235.3 540L324 470Z" fill="#253473" stroke="#253473"></path><path d="M749.7 421L724.7 348L676 392Z" fill="#354482" stroke="#354482"></path><path d="M676 392L724.7 348L605 265Z" fill="#7789c0" stroke="#7789c0"></path><path d="M145.7 118L0 180L113.7 211Z" fill="#354482" stroke="#354482"></path><path d="M113.7 211L0 273L113.7 267Z" fill="#5665a1" stroke="#5665a1"></path><path d="M235.3 0L118.7 0L249.3 54Z" fill="#6677b0" stroke="#6677b0"></path><path d="M77.7 540L235.3 540L199.3 441Z" fill="#354482" stroke="#354482"></path><path d="M0 358L92.7 412L97.7 373Z" fill="#889bcf" stroke="#889bcf"></path><path d="M97.7 373L92.7 412L199.3 441Z" fill="#455491" stroke="#455491"></path><path d="M784.7 81L730.7 0L652 75Z" fill="#889bcf" stroke="#889bcf"></path><path d="M784.7 81L652 75L707.7 167Z" fill="#bfd4ff" stroke="#bfd4ff"></path><path d="M784.7 81L707.7 167L838.3 163Z" fill="#354482" stroke="#354482"></path><path d="M629 446L749.7 421L676 392Z" fill="#253473" stroke="#253473"></path><path d="M516.3 540L631 540L516.3 469Z" fill="#354482" stroke="#354482"></path><path d="M838.3 163L707.7 167L725.7 243Z" fill="#889bcf" stroke="#889bcf"></path><path d="M720.7 540L749.7 421L629 446Z" fill="#acc1ef" stroke="#acc1ef"></path><path d="M860.3 299L838.3 163L725.7 243Z" fill="#455491" stroke="#455491"></path><path d="M0 104L0 180L145.7 118Z" fill="#5665a1" stroke="#5665a1"></path><path d="M0 180L0 273L113.7 211Z" fill="#5665a1" stroke="#5665a1"></path><path d="M118.7 0L0 104L145.7 118Z" fill="#9aaedf" stroke="#9aaedf"></path><path d="M0 273L0 358L97.7 373Z" fill="#bfd4ff" stroke="#bfd4ff"></path><path d="M92.7 412L77.7 540L199.3 441Z" fill="#889bcf" stroke="#889bcf"></path><path d="M860.3 299L725.7 243L724.7 348Z" fill="#455491" stroke="#455491"></path><path d="M838.3 163L823.3 84L784.7 81Z" fill="#5665a1" stroke="#5665a1"></path><path d="M784.7 81L830.3 0L730.7 0Z" fill="#acc1ef" stroke="#acc1ef"></path><path d="M854.3 465L819.3 375L749.7 421Z" fill="#9aaedf" stroke="#9aaedf"></path><path d="M749.7 421L819.3 375L724.7 348Z" fill="#bfd4ff" stroke="#bfd4ff"></path><path d="M631 540L720.7 540L629 446Z" fill="#9aaedf" stroke="#9aaedf"></path><path d="M118.7 0L0 0L0 104Z" fill="#6677b0" stroke="#6677b0"></path><path d="M0 358L0 437L92.7 412Z" fill="#acc1ef" stroke="#acc1ef"></path><path d="M0 437L77.7 540L92.7 412Z" fill="#6677b0" stroke="#6677b0"></path><path d="M819.3 375L860.3 299L724.7 348Z" fill="#354482" stroke="#354482"></path><path d="M960 0L830.3 0L823.3 84Z" fill="#bfd4ff" stroke="#bfd4ff"></path><path d="M823.3 84L830.3 0L784.7 81Z" fill="#5665a1" stroke="#5665a1"></path><path d="M960 101L823.3 84L838.3 163Z" fill="#acc1ef" stroke="#acc1ef"></path><path d="M821.3 540L854.3 465L749.7 421Z" fill="#253473" stroke="#253473"></path><path d="M960 390L960 282L860.3 299Z" fill="#889bcf" stroke="#889bcf"></path><path d="M0 437L0 540L77.7 540Z" fill="#acc1ef" stroke="#acc1ef"></path><path d="M720.7 540L821.3 540L749.7 421Z" fill="#6677b0" stroke="#6677b0"></path><path d="M960 282L960 198L860.3 299Z" fill="#354482" stroke="#354482"></path><path d="M860.3 299L960 198L838.3 163Z" fill="#889bcf" stroke="#889bcf"></path><path d="M960 390L860.3 299L819.3 375Z" fill="#9aaedf" stroke="#9aaedf"></path><path d="M960 390L819.3 375L854.3 465Z" fill="#455491" stroke="#455491"></path><path d="M960 198L960 101L838.3 163Z" fill="#253473" stroke="#253473"></path><path d="M960 489L960 390L854.3 465Z" fill="#acc1ef" stroke="#acc1ef"></path><path d="M960 101L960 0L823.3 84Z" fill="#354482" stroke="#354482"></path><path d="M960 540L960 489L854.3 465Z" fill="#889bcf" stroke="#889bcf"></path><path d="M821.3 540L960 540L854.3 465Z" fill="#bfd4ff" stroke="#bfd4ff"></path></g></svg>