<svg id="visual" viewBox="0 0 360 800" width="360" height="800" xmlns="http://www.w3.org/2000/svg" xmlns:xlink="http://www.w3.org/1999/xlink" version="1.1"><rect width="360" height="800" fill="#C6D2FF"></rect><g><g transform="translate(130 531)"><path d="M0 -83.9L72.7 -42L72.7 42L0 83.9L-72.7 42L-72.7 -42Z" fill="#6029ff"></path></g><g transform="translate(17 243)"><path d="M0 -44L38.1 -22L38.1 22L0 44L-38.1 22L-38.1 -22Z" fill="#6029ff"></path></g><g transform="translate(229 773)"><path d="M0 -50L43.3 -25L43.3 25L0 50L-43.3 25L-43.3 -25Z" fill="#6029ff"></path></g><g transform="translate(248 391)"><path d="M0 -35L30.3 -17.5L30.3 17.5L0 35L-30.3 17.5L-30.3 -17.5Z" fill="#6029ff"></path></g></g></svg>